<svg xmlns="http://www.w3.org/2000/svg" xmlns:xlink="http://www.w3.org/1999/xlink" width="161.496" height="245.341" viewBox="0 0 161.496 245.341">
  <defs>
    <linearGradient id="linear-gradient" x1="35.998" y1="-55.685" x2="36.69" y2="-55.685" gradientUnits="objectBoundingBox">
      <stop offset="0.001" stop-color="#dc6164"/>
      <stop offset="0.307" stop-color="#e0787a"/>
      <stop offset="0.519" stop-color="#e48c8d"/>
      <stop offset="0.604" stop-color="#e59595"/>
      <stop offset="0.746" stop-color="#e69d9d"/>
      <stop offset="0.997" stop-color="#e7a0a0"/>
    </linearGradient>
    <linearGradient id="linear-gradient-2" x1="9.707" y1="-19.204" x2="10.744" y2="-19.204" gradientUnits="objectBoundingBox">
      <stop offset="0" stop-color="#5058d7"/>
      <stop offset="0.101" stop-color="#5058d7" stop-opacity="0.773"/>
      <stop offset="0.207" stop-color="#5058d7" stop-opacity="0.569"/>
      <stop offset="0.319" stop-color="#5058d7" stop-opacity="0.392"/>
      <stop offset="0.435" stop-color="#5058d7" stop-opacity="0.251"/>
      <stop offset="0.556" stop-color="#5058d7" stop-opacity="0.141"/>
      <stop offset="0.683" stop-color="#5058d7" stop-opacity="0.063"/>
      <stop offset="0.823" stop-color="#5058d7" stop-opacity="0.016"/>
      <stop offset="0.997" stop-color="#5058d7" stop-opacity="0"/>
    </linearGradient>
    <linearGradient id="linear-gradient-3" x1="0" y1="0.5" x2="1" y2="0.5" xlink:href="#linear-gradient"/>
    <linearGradient id="linear-gradient-4" x1="0" y1="0.5" x2="1" y2="0.5" xlink:href="#linear-gradient-2"/>
    <linearGradient id="linear-gradient-5" x1="44.395" y1="8.415" x2="45.413" y2="8.415" gradientUnits="objectBoundingBox">
      <stop offset="0.001" stop-color="#dc6164"/>
      <stop offset="0.005" stop-color="#dc6467"/>
      <stop offset="0.029" stop-color="#df7678"/>
      <stop offset="0.059" stop-color="#e28284"/>
      <stop offset="0.098" stop-color="#e3898b"/>
      <stop offset="0.19" stop-color="#e48c8d"/>
      <stop offset="0.333" stop-color="#e59595"/>
      <stop offset="0.573" stop-color="#e69d9d"/>
      <stop offset="0.997" stop-color="#e7a0a0"/>
    </linearGradient>
    <linearGradient id="linear-gradient-6" x1="0.841" y1="-5.259" x2="1.869" y2="-5.259" xlink:href="#linear-gradient-5"/>
    <linearGradient id="linear-gradient-7" x1="1.709" y1="12.416" x2="1.533" y2="11.435" gradientUnits="objectBoundingBox">
      <stop offset="0.001" stop-color="#dc6164"/>
      <stop offset="0.005" stop-color="#dc6467"/>
      <stop offset="0.03" stop-color="#df7678"/>
      <stop offset="0.06" stop-color="#e28284"/>
      <stop offset="0.1" stop-color="#e3898b"/>
      <stop offset="0.193" stop-color="#e48c8d"/>
      <stop offset="0.268" stop-color="#e59696"/>
      <stop offset="0.383" stop-color="#e69d9d"/>
      <stop offset="0.628" stop-color="#e7a0a0"/>
      <stop offset="0.68" stop-color="#e7a0a0"/>
      <stop offset="0.996" stop-color="#e7a0a0"/>
    </linearGradient>
    <linearGradient id="linear-gradient-8" x1="-1.118" y1="0.599" x2="-1.994" y2="-0.526" gradientUnits="objectBoundingBox">
      <stop offset="0.001" stop-color="#dc6164"/>
      <stop offset="0.003" stop-color="#dc6467"/>
      <stop offset="0.017" stop-color="#df7678"/>
      <stop offset="0.034" stop-color="#e28284"/>
      <stop offset="0.057" stop-color="#e3898b"/>
      <stop offset="0.109" stop-color="#e48c8d"/>
      <stop offset="0.167" stop-color="#e59696"/>
      <stop offset="0.257" stop-color="#e69d9d"/>
      <stop offset="0.448" stop-color="#e7a0a0"/>
      <stop offset="0.526" stop-color="#e7a0a0"/>
      <stop offset="0.996" stop-color="#e7a0a0"/>
    </linearGradient>
    <linearGradient id="linear-gradient-9" y1="0.5" x2="1" y2="0.5" gradientUnits="objectBoundingBox">
      <stop offset="0" stop-color="#191a43"/>
      <stop offset="0.003" stop-color="#191a43"/>
      <stop offset="0.286" stop-color="#1b1c48"/>
      <stop offset="0.638" stop-color="#222357"/>
      <stop offset="1" stop-color="#2e2f6f"/>
    </linearGradient>
    <linearGradient id="linear-gradient-11" x1="2.484" y1="-100.175" x2="3.444" y2="-100.175" xlink:href="#linear-gradient-9"/>
    <linearGradient id="linear-gradient-12" x1="0" y1="0.5" x2="1" y2="0.5" xlink:href="#linear-gradient-9"/>
  </defs>
  <g id="Group_86" data-name="Group 86" transform="translate(-32.401 -119.85)">
    <g id="Group_74" data-name="Group 74">
      <g id="Group_65" data-name="Group 65">
        <path id="Path_7" data-name="Path 7" d="M110.584,326.515l-3.183,2.079,8.615,11.134,3.673-2.154Z" fill="url(#linear-gradient)"/>
        <g id="Group_60" data-name="Group 60">
          <path id="Path_8" data-name="Path 8" d="M96.228,335.833l4.761-3.324,6.363-3.927,8.691,11.145-2.2,1.709a3.05,3.05,0,0,0-1.149,2.851l.362,2.467.305,2.1,1.448,9.95a6.862,6.862,0,0,1-2.581,5.321,6.761,6.761,0,0,1-1.859,1.07l-15.657-23.43A4.688,4.688,0,0,1,96.228,335.833Z" fill="#db5724"/>
          <g id="Group_59" data-name="Group 59">
            <path id="Path_9" data-name="Path 9" d="M113.191,346.289c-2.577-.266-3-.441-5.587-.585l.315.07" fill="none" stroke="#1a1b50" stroke-linecap="round" stroke-linejoin="round" stroke-width="0.591"/>
            <path id="Path_10" data-name="Path 10" d="M113.23,348.347c-2.414-.042-2.669-.055-5.083-.1" fill="none" stroke="#1a1b50" stroke-linecap="round" stroke-linejoin="round" stroke-width="0.591"/>
          </g>
          <path id="Path_11" data-name="Path 11" d="M94.708,341.761l15.657,23.43a6.761,6.761,0,0,0,1.859-1.07l-13.661-19.98a13.983,13.983,0,0,0,1.528-1.959,11.087,11.087,0,0,0,1.851-5.372,8.158,8.158,0,0,0-.953-4.3l-4.761,3.324A4.688,4.688,0,0,0,94.708,341.761Z" fill="#ebe7e1"/>
        </g>
        <g id="Group_61" data-name="Group 61">
          <path id="Path_12" data-name="Path 12" d="M155.556,307.7c2.958,5.848-6.059,12.522-8.648,14.2-7.6,4.91-25.115,14.473-27.71,16.119-2.681-3.8-4.919-6.4-8.614-11.5,1.413-.946,2.457-2.131,4.68-3.728.524-.453,22.723-18.051,31-20.782C149.8,300.839,152.374,301.414,155.556,307.7Z" fill="#5058d7"/>
        </g>
        <g id="Group_64" data-name="Group 64" opacity="0.2" style="mix-blend-mode: multiply;isolation: isolate">
          <g id="Group_63" data-name="Group 63">
            <g id="Group_62" data-name="Group 62">
              <path id="Path_13" data-name="Path 13" d="M155.556,307.7c2.958,5.848-6.059,12.522-8.648,14.2-7.6,4.91-25.115,14.473-27.71,16.119-2.681-3.8-4.919-6.4-8.614-11.5,1.413-.946,2.457-2.131,4.68-3.728.524-.453,22.723-18.051,31-20.782C149.8,300.839,152.374,301.414,155.556,307.7Z" fill="url(#linear-gradient-2)"/>
            </g>
          </g>
        </g>
      </g>
      <g id="Group_72" data-name="Group 72">
        <path id="Path_14" data-name="Path 14" d="M81.977,288.292l-3.426-1.649-5.075,13.131,3.743,2.03Z" fill="url(#linear-gradient-3)"/>
        <g id="Group_67" data-name="Group 67">
          <path id="Path_15" data-name="Path 15" d="M66.578,280.823l5.307,2.356,6.652,3.415-5.046,13.2-2.6-1a3.044,3.044,0,0,0-3.033.491L65.93,300.87l-1.636,1.345L56.527,308.6a6.866,6.866,0,0,1-5.889.542,6.706,6.706,0,0,1-1.877-1.038l11.958-25.517A4.686,4.686,0,0,1,66.578,280.823Z" fill="#db5724"/>
          <g id="Group_66" data-name="Group 66">
            <path id="Path_16" data-name="Path 16" d="M66.4,300.749c-1.1-2.343-1.174-2.8-2.388-5.085l.1.307" fill="none" stroke="#1a1b50" stroke-linecap="round" stroke-linejoin="round" stroke-width="0.591"/>
            <path id="Path_17" data-name="Path 17" d="M64.659,301.847c-1.212-2.089-1.333-2.314-2.545-4.4" fill="none" stroke="#1a1b50" stroke-linecap="round" stroke-linejoin="round" stroke-width="0.591"/>
          </g>
          <path id="Path_18" data-name="Path 18" d="M60.719,282.587,48.761,308.1a6.706,6.706,0,0,0,1.877,1.038l10.037-22.025a13.922,13.922,0,0,0,2.467.295,11.091,11.091,0,0,0,5.555-1.193,8.163,8.163,0,0,0,3.188-3.04l-5.307-2.356A4.686,4.686,0,0,0,60.719,282.587Z" fill="#ebe7e1"/>
        </g>
        <g id="Group_68" data-name="Group 68">
          <path id="Path_19" data-name="Path 19" d="M111.966,312.509c-3.476,5.555-13.851,1.289-16.621-.062-8.133-3.967-16.009-9.463-18.76-10.833,1.867-4.261,2.936-7.521,5.392-13.322,1.541.721,3.1,1,5.612,2.078.658.214,17.833,5.565,24.45,11.237C114.864,304.028,115.706,306.532,111.966,312.509Z" fill="#5058d7"/>
        </g>
        <g id="Group_71" data-name="Group 71" opacity="0.2" style="mix-blend-mode: multiply;isolation: isolate">
          <g id="Group_70" data-name="Group 70">
            <g id="Group_69" data-name="Group 69">
              <path id="Path_20" data-name="Path 20" d="M111.966,312.509c-3.476,5.555-13.851,1.289-16.621-.062-8.133-3.967-16.009-9.463-18.76-10.833,1.867-4.261,2.936-7.521,5.392-13.322,1.541.721,3.1,1,5.612,2.078.658.214,17.833,5.565,24.45,11.237C114.864,304.028,115.706,306.532,111.966,312.509Z" fill="url(#linear-gradient-4)"/>
            </g>
          </g>
        </g>
      </g>
      <path id="Path_21" data-name="Path 21" d="M151.64,316.253c-2.494.767-5.956,1.921-12.3-2.695S123,267.82,123,267.82s-4.569,50.841-16.929,47.513a1.8,1.8,0,0,1-.174-.047,14.894,14.894,0,0,1-4.242-2.035c-7.724-5.383-6.137-16.222-6.137-16.222l.08-14.308.04-6.53.154-27.642,51.568,1.321s.874,12.747,6.637,38.888S154.142,315.479,151.64,316.253Z" fill="#5058d7"/>
      <g id="Group_73" data-name="Group 73">
        <path id="Path_22" data-name="Path 22" d="M135.249,253.109s.614,8.791,13.9,12.675" fill="none" stroke="#2620a4" stroke-linecap="round" stroke-linejoin="round" stroke-width="0.667" stroke-dasharray="1.334 2.001"/>
        <path id="Path_23" data-name="Path 23" d="M95.792,261.7s12.471.818,14.72-9.2" fill="none" stroke="#2620a4" stroke-linecap="round" stroke-linejoin="round" stroke-width="0.667" stroke-dasharray="1.334 2.001"/>
      </g>
    </g>
    <g id="Group_85" data-name="Group 85">
      <path id="Path_24" data-name="Path 24" d="M150.075,252.281s-.881.107-2.448.267h-.007c-2.555.253-6.937.64-12.333.88a190.287,190.287,0,0,1-24.907-.42,100.044,100.044,0,0,1-14.595-2.295q-1.05-.26-2.081-.54s.8-10.379,1.608-22.806c.06-.967.126-1.947.186-2.935.327-5.076.641-10.379.894-15.375q.081-1.41.14-2.781a.088.088,0,0,0,0-.06c.467-9.686.661-17.737.18-19.945-.573-2.654,1.141-4.235,4.169-5.069,3.549-.987,8.9-.947,14.468-.42,4.516.42,9.179,1.167,13.134,1.934,3.529.694,6.5,1.414,8.3,1.948a13.068,13.068,0,0,1,1.547.534c4.343,1.961,10.212,5.1,9.986,9.732-.147,2.994-.214,6.33-.221,9.832a.978.978,0,0,0-.006.133v.007c-.007,1.927.006,3.908.04,5.916.053,4.022.173,8.151.32,12.167q.109,2.852.227,5.6C149.268,241.635,150.075,252.281,150.075,252.281Z" fill="#ede2c7"/>
      <path id="Path_25" data-name="Path 25" d="M148.681,228.581a67.515,67.515,0,0,1-7.4,1.161c-15.329,1.627-34.186-.554-45.965-2.375.06-.967.126-1.947.186-2.935.327-5.076.641-10.379.894-15.375,9.552,1.488,24.1,3.289,37.6,3.015,2.955-.06,5.856-.22,8.645-.507.053,0,.106-.006.153-.006,1.841-.194,3.629-.434,5.343-.741.053,4.022.173,8.151.32,12.167Q148.563,225.837,148.681,228.581Z" fill="#db5724" opacity="0.9"/>
      <g id="Group_75" data-name="Group 75">
        <path id="Path_26" data-name="Path 26" d="M193.612,132.967a1.23,1.23,0,0,0,.133-1.371c-.37-.613-1.083-.47-1.655-.277a17.874,17.874,0,0,0-5.447,2.985,53.774,53.774,0,0,0,6.347-7.048,2.609,2.609,0,0,0,.546-1.411,1.523,1.523,0,0,0-2.2-1.528,4.737,4.737,0,0,0-1.6,1.124,44.912,44.912,0,0,0-5.234,5.917,26.44,26.44,0,0,0,3.827-8.82,3.541,3.541,0,0,0,.1-1.633,1.323,1.323,0,0,0-1.122-1.054,1.836,1.836,0,0,0-1.341.791c-2.312,2.644-3.322,6.15-4.266,9.533a37.457,37.457,0,0,0,.9-7.345c.023-.992-.1-2.176-.974-2.647a1.94,1.94,0,0,0-2.373.793c-.517.754-1.535,6.422-1.909,9.744-.486-.995-1.2-3.778-2.6-4.293a1.876,1.876,0,0,0-2.5,2.06c.449,2.766,2.319,4.916,1.49,10.793a4.98,4.98,0,0,0,3.057,4.947c3.543,1.708,7.06-2.958,9.539-5.084C188.582,137.212,191.787,135.306,193.612,132.967Z" fill="url(#linear-gradient-5)"/>
        <path id="Path_27" data-name="Path 27" d="M141.774,210.958s15.779-13.1,31.275-39.462a217.123,217.123,0,0,0,12.388-28.313l-14.528-9.746-13.391,30.39s-15.059,17.551-21.056,21.039S141.774,210.958,141.774,210.958Z" fill="#ede2c7"/>
      </g>
      <g id="Group_76" data-name="Group 76">
        <path id="Path_28" data-name="Path 28" d="M33.121,134.858a1.229,1.229,0,0,1-.279-1.349c.3-.649,1.026-.584,1.616-.453a17.892,17.892,0,0,1,5.736,2.381,53.776,53.776,0,0,1-7.069-6.324,2.61,2.61,0,0,1-.694-1.343c-.24-1.5,1.028-1.991,2.019-1.757a4.758,4.758,0,0,1,1.716.946,44.808,44.808,0,0,1,5.84,5.319,26.461,26.461,0,0,1-4.754-8.357,3.537,3.537,0,0,1-.272-1.613,1.325,1.325,0,0,1,1-1.169,1.839,1.839,0,0,1,1.419.642c2.584,2.38,3.965,5.757,5.268,9.018a37.435,37.435,0,0,1-1.691-7.2c-.13-.984-.133-2.175.684-2.737a1.939,1.939,0,0,1,2.444.533c.6.694,2.218,6.219,2.947,9.481.376-1.041.788-3.885,2.123-4.547a1.875,1.875,0,0,1,2.709,1.778c-.149,2.8-1.776,5.137-.32,10.892a4.976,4.976,0,0,1-2.506,5.246c-3.338,2.081-7.338-2.18-10.031-4.026C38.58,138.537,35.188,136.987,33.121,134.858Z" fill="url(#linear-gradient-6)"/>
        <path id="Path_29" data-name="Path 29" d="M98.647,206.382c-.254.647-.407,1.014-.407,1.014s-.607-.367-1.708-1.12c-.033-.02-.066-.047-.1-.067-5.009-3.428-19.757-14.341-35.246-33.732a214.567,214.567,0,0,1-18.01-28.142l1.515-1.361,8.3-7.484,3.182-2.868,19.957,30.057s17.81,15.241,24.747,18.523c.22.1.421.187.614.267C107.118,183.743,100.414,201.873,98.647,206.382Z" fill="#ede2c7"/>
      </g>
      <g id="Group_84" data-name="Group 84">
        <path id="Path_30" data-name="Path 30" d="M128.607,177.38l-13.056-.03s-.347,5.825-.314,5.834a6.661,6.661,0,0,0,13.166.729C128.526,183.3,128.607,177.38,128.607,177.38Z" fill="url(#linear-gradient-7)"/>
        <path id="Path_31" data-name="Path 31" d="M133.78,166.983c.037,8.786-5.258,13.658-11.815,13.686s-11.893-4.8-11.93-13.586c-.064-15.15,5.31-18.092,11.867-18.12S133.713,151.075,133.78,166.983Z" fill="url(#linear-gradient-8)"/>
        <path id="Path_32" data-name="Path 32" d="M134.375,164.516a10.438,10.438,0,0,1-3.039-9.46c-5.1,2.58-14.207,1.857-18.346.115a15.034,15.034,0,0,1-2.523,9.345c-.429-2.235-.238-5-.917-7.167-1.147-3.669-.927-5.489,0-7.568,1.892-4.242,4.762-1.643,6.333-1.79,3.431-.322,8.172-2.8,11.637-2.8,5.381,0,9.3,4.477,8.436,8.159C134.227,160.7,134.875,163.154,134.375,164.516Z" fill="url(#linear-gradient-9)"/>
        <g id="Group_80" data-name="Group 80">
          <path id="Path_33" data-name="Path 33" d="M112.609,171.651c5.349-2.6,13.6-3.376,18.71-.342a5.307,5.307,0,0,0,2.354-3.528l.876-.08a26.286,26.286,0,0,1-2.069,8.232c-.965,2.263-3.827,4.9-6.285,4.981-2.379.083-5.126-.038-7.762-.147a8.265,8.265,0,0,1-7.121-5.367,43.789,43.789,0,0,1-1.423-7.886s.241-1.335.712.118A16.783,16.783,0,0,0,112.609,171.651Z" fill="url(#linear-gradient-9)"/>
          <g id="Group_77" data-name="Group 77">
            <ellipse id="Ellipse_6" data-name="Ellipse 6" cx="1.056" cy="1.584" rx="1.056" ry="1.584" transform="translate(115.989 162.232)"/>
          </g>
          <g id="Group_78" data-name="Group 78">
            <path id="Path_34" data-name="Path 34" d="M128.1,163.815c0,.875-.473,1.584-1.056,1.584s-1.056-.709-1.056-1.584.473-1.583,1.056-1.583S128.1,162.941,128.1,163.815Z"/>
          </g>
          <path id="Path_35" data-name="Path 35" d="M122,162.046q.526,2.577.848,5.191a1.593,1.593,0,0,1-.082.959,1.532,1.532,0,0,1-1.455.555" fill="none" stroke="#df6161" stroke-linecap="round" stroke-linejoin="round" stroke-width="0.58"/>
          <path id="Path_36" data-name="Path 36" d="M127.677,159.965a2.2,2.2,0,0,1,1.026.574.463.463,0,0,1,.126.531c-.132.2-.435.139-.665.071a4.713,4.713,0,0,0-1.636-.182,1.362,1.362,0,0,1-.931-.131.61.61,0,0,1,.221-1.053A3.624,3.624,0,0,1,127.677,159.965Z" fill="url(#linear-gradient-11)"/>
          <path id="Path_37" data-name="Path 37" d="M116.227,159.759a2.2,2.2,0,0,0-1,.612.461.461,0,0,0-.106.536c.139.2.439.122.667.046a4.691,4.691,0,0,1,1.628-.243,1.363,1.363,0,0,0,.925-.166.61.61,0,0,0-.259-1.044A3.626,3.626,0,0,0,116.227,159.759Z" fill="url(#linear-gradient-12)"/>
          <g id="Group_79" data-name="Group 79">
            <path id="Path_38" data-name="Path 38" d="M124.541,171.205c-.017-.491-4.6-.518-4.574.163a2.173,2.173,0,0,0,.379,1.141,12.731,12.731,0,0,1,4.059-.474A2.165,2.165,0,0,0,124.541,171.205Z" fill="#fff"/>
            <path id="Path_39" data-name="Path 39" d="M120.346,172.509a2.3,2.3,0,0,0,4.059-.474A12.731,12.731,0,0,0,120.346,172.509Z" fill="#fff"/>
          </g>
        </g>
        <g id="Group_83" data-name="Group 83">
          <g id="Group_81" data-name="Group 81">
            <path id="Path_40" data-name="Path 40" d="M108.052,161.553l-.042.013c-1.373.43-2,2.327-1.4,4.238.592,1.892,2.164,3.087,3.527,2.695l.043-.013a1.946,1.946,0,0,0,.739-.431,4.215,4.215,0,0,0-2.068-6.559,1.948,1.948,0,0,0-.8.057Z" fill="#e7a0a0"/>
          </g>
          <g id="Group_82" data-name="Group 82">
            <path id="Path_41" data-name="Path 41" d="M135.79,161.553l.043.013c1.373.43,2,2.327,1.4,4.238-.591,1.892-2.163,3.087-3.527,2.695l-.042-.013a1.946,1.946,0,0,1-.739-.431,4.214,4.214,0,0,1,2.068-6.559,1.942,1.942,0,0,1,.795.057Z" fill="#e7a0a0"/>
          </g>
        </g>
      </g>
    </g>
  </g>
</svg>
